# xmcd
#
# Track frame offsets: 
#        150
#        10362
#        23137
#        33675
#        45025
#        56325
#        67512
#        78550
#        91100
#        102312
#        112862
#        122537
#        134787
#        147737
#        158250
#        173312
#
# Disc length: 2499 seconds
#
# Revision: 0
# Processed by: cddbd v1.4PL0 Copyright (c) Steve Scherf et al.
# Submitted via: ExactAudioCopy v0.90b3
#
DISCID=ba09c110
DTITLE=Tommy Cash - The Very Best of Tommy Cash
DYEAR=2001
DGENRE=Country
TTITLE0=Your Lovin' Takes the Leavin' Out of Me
TTITLE1=Six White Horses
TTITLE2=Rise and Shine
TTITLE3=One Song Away
TTITLE4=The Tears on Lincoln's Face
TTITLE5=So This is Love
TTITLE6=I'm Gonna Write a Song
TTITLE7=Roll Truck Roll
TTITLE8=You're Everything
TTITLE9=That Certain One
TTITLE10=Listen
TTITLE11=Workin' on a Feelin'
TTITLE12=I Recall a Gypsy Woman
TTITLE13=She Met a Stranger, I Met a Train
TTITLE14=The Cowboy and the Lady
TTITLE15=Take My Love to Rita
EXTD=
EXTT0=
EXTT1=
EXTT2=
EXTT3=
EXTT4=
EXTT5=
EXTT6=
EXTT7=
EXTT8=
EXTT9=
EXTT10=
EXTT11=
EXTT12=
EXTT13=
EXTT14=
EXTT15=
PLAYORDER=
